<?xml version="1.0" standalone="no"?>
<!DOCTYPE svg PUBLIC "-//W3C//DTD SVG 20010904//EN"
 "http://www.w3.org/TR/2001/REC-SVG-20010904/DTD/svg10.dtd">
<svg version="1.0" xmlns="http://www.w3.org/2000/svg"
 width="280.000000pt" height="280.000000pt" viewBox="0 0 280.000000 280.000000"
 preserveAspectRatio="xMidYMid meet">
<metadata>
Created by potrace 1.14, written by Peter Selinger 2001-2017
</metadata>
<g transform="translate(0.000000,280.000000) scale(0.100000,-0.100000)"
fill="#000000" stroke="none">
<path d="M544 2763 c1 -22 7 -38 16 -41 13 -3 13 -2 0 8 -13 10 -13 11 2 6 10
-3 20 -1 24 5 3 6 12 8 18 6 7 -3 13 1 13 9 0 7 -4 11 -9 8 -4 -3 -8 -3 -8 0
0 3 9 10 19 16 14 7 22 7 27 -2 4 -7 3 -8 -4 -4 -11 7 -16 -12 -13 -54 0 -10
-1 -11 -5 -2 -3 6 -10 12 -15 12 -6 0 -8 -3 -6 -8 3 -4 -34 -8 -81 -10 -48 -2
-91 -8 -97 -13 -7 -7 -3 -8 10 -3 19 8 19 7 3 -10 -21 -20 -23 -37 -5 -32 6 1
8 1 4 -2 -4 -2 -3 -10 2 -16 8 -9 7 -13 -4 -13 -7 0 -13 5 -12 10 1 5 -4 12
-12 15 -8 2 -11 0 -7 -6 3 -5 -1 -13 -9 -16 -12 -4 -13 -2 -6 13 7 12 6 22 -1
29 -9 9 -9 15 1 25 10 10 11 9 6 -4 -4 -10 0 -16 10 -16 8 0 15 3 15 6 -1 15
-17 27 -36 27 -19 0 -21 -5 -18 -35 4 -47 -7 -57 -56 -54 -39 2 -41 1 -40 -25
4 -60 3 -62 -46 -62 l-45 0 3 -47 c3 -44 1 -48 -19 -47 -13 1 -20 -3 -17 -7 3
-5 0 -9 -5 -9 -6 0 -10 -3 -10 -7 3 -19 -2 -33 -12 -33 -5 0 -7 5 -3 12 5 7 3
8 -7 3 -8 -5 -7 0 3 12 23 25 23 32 1 29 -26 -4 -27 -53 -2 -61 22 -7 26 -22
4 -22 -8 0 -12 4 -9 9 3 4 0 8 -5 8 -7 0 -11 -23 -11 -54 0 -58 -4 -63 -56
-61 -29 1 -30 -1 -29 -34 1 -22 6 -35 13 -33 7 1 12 -2 12 -8 0 -5 -7 -10 -14
-10 -13 0 -15 -95 -15 -697 -1 -540 2 -700 12 -712 10 -12 9 -13 -1 -7 -9 5
-12 -1 -10 -23 2 -25 5 -28 20 -20 10 5 18 6 18 2 0 -4 5 -1 10 7 8 12 10 12
10 1 0 -10 3 -11 13 -3 10 9 13 6 13 -13 0 -14 -4 -25 -8 -25 -15 0 -23 -2
-43 -12 -19 -8 -19 -8 -2 5 15 13 15 15 3 20 -17 7 -30 -9 -32 -38 0 -17 5
-21 37 -21 21 0 36 3 33 8 -3 4 0 8 5 8 7 0 11 -23 11 -54 0 -34 5 -56 13 -59
9 -4 9 -6 -1 -6 -7 -1 -10 -6 -7 -11 5 -8 12 -7 22 2 8 7 27 13 41 14 l26 1
-22 -17 c-11 -10 -32 -16 -45 -15 -21 3 -24 -1 -23 -26 0 -16 4 -29 8 -29 8 0
12 16 9 33 0 4 4 7 10 7 6 0 9 -8 6 -19 -3 -14 1 -18 22 -17 24 1 26 -2 29
-46 l3 -47 45 2 44 2 0 -47 0 -48 43 -1 c133 -3 131 -3 132 -32 1 -14 -2 -24
-7 -21 -12 8 -10 -10 4 -24 7 -7 31 -12 55 -12 l43 0 0 -44 0 -45 40 1 c22 0
38 3 36 7 -3 4 0 13 6 21 8 12 9 12 4 -2 -7 -23 2 -27 68 -29 31 -1 56 -6 56
-11 0 -5 -4 -6 -10 -3 -5 3 -10 3 -11 -2 -4 -45 -3 -65 3 -69 5 -3 11 2 14 10
3 9 10 13 15 10 5 -3 7 -9 5 -13 -3 -3 3 -7 13 -7 10 0 18 6 18 13 0 7 -3 10
-7 8 -4 -2 -7 2 -7 10 0 8 3 15 7 15 4 0 7 7 7 14 0 12 -5 13 -19 5 -15 -8
-17 -13 -8 -24 9 -11 7 -14 -9 -12 -25 2 -24 0 -10 30 7 16 19 25 36 25 22 0
24 -4 19 -30 -5 -28 -4 -29 12 -17 14 11 15 11 4 -1 -35 -40 -47 -40 793 -39
619 0 805 3 805 12 0 8 3 8 9 -1 5 -9 8 -3 9 17 0 17 -4 31 -9 31 -6 0 -7 -5
-4 -10 3 -6 -1 -13 -9 -16 -9 -3 -13 -11 -9 -17 3 -6 1 -7 -5 -3 -17 10 -15
26 4 26 8 0 13 4 10 8 -3 5 4 16 15 25 14 13 41 18 103 19 l84 1 -3 43 c-1 30
2 45 12 48 8 3 11 10 8 16 -3 5 -1 10 5 10 7 0 10 -6 7 -14 -4 -10 4 -13 29
-12 l34 1 0 108 c0 107 0 108 23 103 l22 -6 -23 12 c-28 14 -25 42 6 46 23 4
29 -7 12 -24 -6 -6 -2 -10 13 -11 12 0 17 1 10 4 -16 6 -5 33 13 33 12 0 14
114 14 782 -1 590 -4 778 -12 770 -7 -7 -23 -12 -37 -12 -21 0 -23 2 -11 10 8
5 10 10 4 10 -5 0 -15 -5 -22 -12 -9 -9 -12 -7 -12 11 0 12 4 19 10 16 6 -3
10 -1 10 4 0 6 -5 11 -11 11 -6 0 -9 6 -6 14 3 7 -2 24 -10 37 -10 13 -11 19
-4 15 10 -6 12 2 10 35 -1 24 -7 50 -12 57 -6 8 -6 12 2 12 14 0 8 37 -9 53
-10 9 -11 9 -6 -1 6 -9 -1 -11 -26 -7 -24 4 -29 3 -18 -5 13 -9 13 -10 0 -10
-13 0 -13 -1 0 -10 13 -9 13 -10 0 -10 -13 0 -13 -1 0 -10 13 -9 13 -10 0 -10
-13 0 -13 -1 0 -10 9 -6 18 -6 25 1 6 6 5 13 -4 18 -7 5 -9 11 -4 14 10 6 35
-6 34 -17 -1 -15 -30 -35 -47 -34 -17 2 -19 11 -21 82 -4 130 -8 159 -23 164
-12 4 -13 2 -3 -9 9 -11 7 -19 -8 -38 -10 -13 -19 -18 -19 -11 0 10 -3 10 -14
1 -10 -8 -16 -9 -21 -1 -6 10 1 14 18 11 5 -1 7 4 4 11 -2 7 -10 12 -17 10
-11 -3 -11 0 0 12 8 11 9 16 1 16 -6 0 -10 3 -10 8 1 4 1 28 0 55 l-1 47 -45
0 -45 0 0 45 0 45 -47 2 c-27 0 -58 1 -71 2 -12 1 -27 8 -32 16 -9 14 -15 6
-10 -15 1 -5 -2 -7 -6 -2 -12 12 -15 45 -4 52 5 3 7 0 4 -8 -3 -8 1 -14 10
-14 11 0 14 7 10 24 -5 20 -3 23 17 20 31 -5 35 -23 10 -39 -25 -15 -27 -25
-6 -25 8 0 15 4 15 9 0 5 3 7 8 4 4 -2 7 10 8 28 0 30 -2 32 -37 32 -24 0 -36
-4 -32 -10 4 -6 0 -6 -8 1 -8 6 -40 13 -71 15 -31 1 -54 6 -52 9 2 4 -3 9 -11
13 -8 3 -19 -3 -24 -12 -8 -14 -10 -14 -11 -2 0 13 -2 13 -9 1 -6 -10 -8 -2
-7 22 2 21 6 40 11 45 4 4 5 1 0 -7 -5 -9 -4 -12 2 -8 5 3 10 0 10 -8 0 -8 -4
-15 -9 -15 -5 0 -6 -5 -2 -11 3 -6 9 -7 13 -3 3 5 14 16 24 23 17 13 18 13 15
-4 -1 -10 4 -20 12 -22 13 -4 13 -3 0 6 -8 6 -10 11 -4 11 5 0 10 11 10 24 0
22 -16 29 -32 13 -10 -10 -26 -9 -20 1 3 5 -230 10 -517 11 l-522 2 3 -131 c2
-97 -1 -136 -10 -148 -8 -10 -9 -13 -1 -9 8 5 12 -20 12 -94 1 -77 -2 -98 -12
-93 -9 6 -9 4 -1 -7 16 -20 17 -739 1 -758 -9 -11 -9 -13 0 -8 15 9 21 -28 12
-65 -9 -34 -5 -38 48 -38 l43 0 0 45 0 45 45 0 c48 0 49 2 45 63 -2 27 0 29
39 26 22 -2 43 0 47 3 3 4 6 26 6 48 -1 37 2 41 21 38 12 -2 21 -8 20 -14 -1
-6 5 -11 12 -11 11 0 12 4 4 14 -9 10 -6 13 12 13 43 0 58 3 53 12 -3 5 -9 6
-13 4 -4 -3 -8 6 -9 19 -1 15 3 22 15 21 9 0 17 5 19 12 1 7 0 8 -2 3 -3 -6
-12 -7 -20 -4 -26 10 -15 18 26 20 28 1 39 -2 34 -10 -3 -7 0 -5 8 3 7 9 27
15 45 14 18 0 37 4 42 10 11 13 9 41 -2 52 -16 17 -6 22 51 26 9 1 8 7 -3 22
-20 29 -39 63 -30 54 5 -4 14 -3 22 3 7 7 13 7 13 2 0 -6 10 -14 22 -20 19 -8
20 -10 4 -16 -9 -4 -15 -3 -12 2 6 9 -23 25 -31 17 -7 -7 29 -44 41 -42 6 2 8
1 4 -1 -12 -7 -9 -20 5 -20 7 0 13 15 14 34 1 18 -2 33 -8 33 -5 0 -9 4 -9 9
0 6 68 10 166 10 159 0 165 -1 159 -20 -4 -11 -2 -19 5 -19 6 0 9 4 6 9 -3 5
0 14 7 20 11 8 14 5 14 -18 0 -22 -5 -28 -21 -28 -39 -1 -46 -3 -46 -14 0 -8
5 -8 15 1 12 10 15 10 15 0 0 -10 3 -10 15 0 12 10 15 10 15 -1 0 -11 2 -11
10 1 5 8 7 22 5 30 -2 8 -1 21 4 28 5 9 8 -2 7 -30 -2 -47 2 -45 -103 -49 -13
-1 -23 -10 -27 -22 -8 -30 2 -34 13 -6 7 18 10 20 10 6 1 -12 5 -16 14 -11 6
4 3 -3 -8 -16 -17 -20 -17 -22 -3 -17 11 4 15 2 12 -7 -3 -7 -11 -13 -19 -13
-8 0 -13 3 -10 5 7 7 -15 32 -27 32 -7 0 -6 -5 1 -13 11 -14 5 -27 -13 -27 -6
0 -5 4 3 9 9 6 10 11 2 15 -6 4 -15 -4 -21 -18 -5 -14 -15 -26 -22 -26 -9 0
-8 3 2 10 13 8 13 10 -2 10 -9 0 -19 -8 -21 -17 -4 -16 -5 -16 -6 -1 -1 10 -9
16 -20 15 -16 -1 -18 -4 -8 -16 10 -12 9 -13 -2 -7 -11 7 -13 1 -9 -28 4 -39
4 -39 -55 -36 -38 2 -39 1 -37 -32 3 -57 3 -58 -45 -58 l-45 0 0 -46 c0 -43
-1 -45 -27 -44 -62 4 -69 1 -67 -27 1 -16 4 -35 5 -43 3 -12 -7 -15 -43 -17
-26 -1 -55 -7 -65 -13 -14 -9 -14 -10 -2 -7 11 4 16 -1 15 -14 -1 -28 -16 -25
-37 8 -21 31 -26 25 -6 -8 10 -18 9 -23 -10 -36 -13 -9 -23 -19 -23 -24 0 -5
9 -1 20 9 23 19 61 25 59 8 -1 -6 -1 -35 0 -63 l1 -53 45 0 45 0 0 -45 0 -45
45 0 45 0 0 -90 0 -90 45 0 45 0 0 -45 0 -45 45 0 c48 0 49 -2 45 -62 -1 -27
1 -28 44 -28 45 0 46 -1 48 -32 0 -18 1 -39 1 -45 -1 -8 12 -13 29 -13 18 0
27 4 23 11 -4 6 2 5 14 -3 16 -10 21 -23 21 -56 l0 -44 -177 4 -178 3 -1 35
c-1 19 -2 59 -3 88 l-1 52 -45 0 -45 0 0 43 c0 23 -4 49 -9 56 -6 9 -6 22 0
33 7 14 6 16 -6 12 -9 -4 -13 -9 -11 -12 3 -3 -2 -11 -12 -19 -16 -14 -16 -14
1 -9 9 3 17 1 17 -4 0 -6 -14 -10 -30 -10 -36 0 -49 23 -31 52 7 12 8 17 2 13
-6 -3 -11 2 -11 12 0 15 -8 18 -50 16 l-51 -2 3 39 c2 48 -1 52 -49 53 -37 2
-38 3 -41 45 -3 41 -4 42 -40 43 -20 1 -41 1 -45 0 -5 -1 -8 11 -7 26 4 56 1
61 -37 65 -21 3 -42 3 -48 1 -6 -2 -9 -116 -8 -318 l1 -315 -134 0 -134 0 0
1085 0 1084 -114 -2 c-63 -1 -118 -5 -122 -10 -11 -11 -26 -9 -19 3 3 6 2 10
-4 10 -5 0 -8 -17 -7 -37z m49 1 c-8 -13 -21 -20 -29 -17 -18 7 -18 13 2 28
29 21 44 15 27 -11z m1563 14 c4 -6 3 -8 -4 -4 -6 3 -13 2 -17 -4 -3 -5 -11
-10 -18 -10 -6 0 -2 7 9 15 23 18 21 17 30 3z m-1466 -54 c0 -8 -19 -13 -24
-6 -3 5 1 9 9 9 8 0 15 -2 15 -3z m1736 -129 c-1 -8 -5 -17 -8 -21 -5 -4 -4
16 1 34 3 9 9 -1 7 -13z m-2199 -90 c0 -8 -4 -12 -9 -9 -5 3 -6 10 -3 15 9 13
12 11 12 -6z m2280 -10 c0 -8 -4 -12 -9 -9 -5 3 -6 10 -3 15 9 13 12 11 12 -6z
m-2336 -88 c-14 -14 -14 -30 -1 -22 6 3 10 1 10 -4 0 -6 -5 -11 -11 -11 -5 0
-8 -4 -5 -8 3 -5 -1 -9 -9 -9 -13 0 -13 6 4 75 1 2 6 0 12 -4 8 -4 8 -9 0 -17z
m2439 -47 c0 -5 -5 -10 -11 -10 -5 0 -7 5 -4 10 3 6 8 10 11 10 2 0 4 -4 4
-10z m-2530 -120 c-9 -6 -9 -9 1 -12 9 -3 8 -6 -5 -11 -9 -4 -15 -3 -12 1 2 4
-4 8 -14 9 -23 2 -35 -13 -19 -23 8 -5 9 -3 4 6 -5 8 -3 11 6 8 7 -2 14 -16
14 -31 1 -14 -2 -24 -7 -21 -4 3 -6 10 -3 15 5 8 -7 13 -26 11 -3 -1 -5 11 -3
26 1 15 2 27 3 27 1 0 17 1 37 1 20 1 31 -2 24 -6z m2617 -7 c0 -8 -6 -9 -17
-3 -10 5 -21 6 -25 2 -5 -4 -6 -2 -2 3 8 15 44 13 44 -2z m-2610 -43 c-1 -11
-4 -20 -8 -20 -10 0 -19 27 -12 34 12 12 22 5 20 -14z m-2 -78 c-3 -3 -11 0
-18 7 -9 10 -8 11 6 5 10 -3 15 -9 12 -12z m-40 -20 c-3 -3 -11 0 -18 7 -9 10
-8 11 6 5 10 -3 15 -9 12 -12z m2625 14 c0 -3 -4 -8 -10 -11 -5 -3 -10 -1 -10
4 0 6 5 11 10 11 6 0 10 -2 10 -4z m85 -146 c3 -6 -1 -7 -9 -4 -18 7 -21 14
-7 14 6 0 13 -4 16 -10z m-1105 -41 c0 -5 -4 -9 -8 -9 -5 0 -9 7 -9 15 0 8 4
12 9 9 4 -3 8 -9 8 -15z m-95 -40 c-4 -5 0 -9 7 -9 10 0 10 -2 1 -8 -9 -6 -6
-11 8 -21 17 -10 20 -10 13 1 -15 24 -15 55 0 55 9 0 13 -4 11 -8 -3 -4 1 -9
9 -12 7 -3 13 -16 12 -29 -1 -19 -6 -23 -36 -23 -33 0 -34 2 -35 37 -1 20 2
35 7 32 5 -3 6 -10 3 -15z m309 -126 c4 -10 1 -11 -13 -4 -10 6 -22 7 -26 3
-5 -4 -5 -2 -2 4 9 15 35 13 41 -3z m-99 -52 c-9 -8 -36 -10 -30 -2 2 4 11 8
20 8 8 0 13 -3 10 -6z m225 -935 c0 -2 -7 -7 -16 -10 -8 -3 -12 -2 -9 4 6 10
25 14 25 6z m-1917 -111 c-20 -14 -47 -15 -59 -2 -4 3 3 5 15 2 11 -2 21 -1
21 3 0 4 10 8 21 9 22 2 22 2 2 -12z m107 -175 c0 -5 -7 -6 -17 -3 -12 5 -14
3 -8 -7 5 -9 4 -11 -3 -6 -19 11 -14 26 8 26 11 0 20 -4 20 -10z m127 -135 c0
-8 -4 -12 -9 -9 -5 3 -6 10 -3 15 9 13 12 11 12 -6z m-2 -45 c3 -5 1 -10 -4
-10 -6 0 -11 5 -11 10 0 6 2 10 4 10 3 0 8 -4 11 -10z m2361 -56 c1 -9 0 -13
-4 -10 -3 4 -7 14 -8 22 -1 9 0 13 4 10 3 -4 7 -14 8 -22z m25 -7 c-10 -9 -11
-8 -5 6 3 10 9 15 12 12 3 -3 0 -11 -7 -18z m6 -23 c-3 -3 -12 -4 -19 -1 -8 3
-5 6 6 6 11 1 17 -2 13 -5z m-152 -43 c3 -5 2 -12 -3 -15 -5 -3 -9 1 -9 9 0
17 3 19 12 6z m-1953 -18 c-11 -18 -42 -27 -42 -11 0 6 7 8 15 4 9 -3 15 0 15
9 0 8 5 15 10 15 7 0 8 -6 2 -17z m1972 -8 c-10 -8 -23 -15 -28 -15 -6 0 -1 7
10 15 10 8 23 15 28 15 6 0 1 -7 -10 -15z m-1963 -26 c-5 -13 -10 -19 -10 -12
-1 15 10 45 15 40 3 -2 0 -15 -5 -28z m2002 18 c3 -8 2 -20 -3 -26 -5 -9 -7
-4 -7 13 0 29 2 32 10 13z m-35 -21 c-7 -8 -15 -12 -17 -11 -5 6 10 25 20 25
5 0 4 -6 -3 -14z m-1994 -4 c3 -5 -1 -9 -9 -9 -8 0 -15 4 -15 9 0 10 17 10 24
0z m293 -37 c0 -8 -4 -12 -9 -9 -5 3 -6 10 -3 15 9 13 12 11 12 -6z m1516 -2
c-6 -16 -3 -16 18 2 l24 20 -19 -23 c-19 -22 -46 -16 -32 7 11 17 16 13 9 -6z
m-13 -38 c0 -8 -4 -15 -10 -15 -5 0 -7 7 -4 15 4 8 8 15 10 15 2 0 4 -7 4 -15z"/>
<path d="M575 2769 c-4 -6 -5 -12 -2 -15 2 -3 7 2 10 11 7 17 1 20 -8 4z"/>
<path d="M1591 1857 c16 -31 18 -32 16 -8 -1 11 -7 23 -14 26 -11 4 -11 0 -2
-18z"/>
<path d="M2302 2678 c2 -5 8 -9 13 -9 5 0 11 4 13 9 1 5 -4 9 -13 9 -9 0 -14
-4 -13 -9z"/>
<path d="M2554 2421 c8 -39 18 -52 32 -40 8 6 11 16 8 21 -4 6 -9 6 -14 -2 -5
-8 -9 -5 -13 9 -3 12 -1 19 3 16 4 -3 19 -1 32 4 20 8 18 9 -14 9 -29 -1 -37
-5 -34 -17z"/>
<path d="M2758 2061 c5 -14 3 -14 -11 -2 -11 9 -17 10 -17 2 0 -6 4 -11 9 -11
5 0 11 -9 14 -21 5 -20 30 -24 27 -5 -1 5 4 13 12 18 10 8 10 9 -2 5 -8 -2
-14 -10 -12 -16 1 -6 -2 -11 -8 -11 -13 0 -13 16 -1 39 7 13 6 18 -4 18 -8 0
-11 -7 -7 -16z"/>
<path d="M1999 1978 c-5 -18 -6 -38 -1 -34 7 8 12 36 6 36 -2 0 -4 -1 -5 -2z"/>
<path d="M1914 1885 c17 -13 18 -15 3 -15 -9 0 -17 -4 -17 -10 0 -15 16 -12
30 5 14 17 5 35 -18 35 -15 -1 -15 -2 2 -15z"/>
<path d="M1490 1764 c-17 -10 -18 -13 -5 -8 11 3 26 7 33 7 6 0 12 4 12 9 0
12 -11 9 -40 -8z"/>
<path d="M1495 1740 c-3 -5 -2 -10 4 -10 5 0 13 5 16 10 3 6 2 10 -4 10 -5 0
-13 -4 -16 -10z"/>
<path d="M1393 1653 c0 -9 4 -10 14 -2 7 6 13 12 13 14 0 1 -6 2 -13 2 -8 0
-14 -6 -14 -14z"/>
<path d="M1466 1518 c3 -5 10 -6 15 -3 13 9 11 12 -6 12 -8 0 -12 -4 -9 -9z"/>
<path d="M1496 1512 c-2 -4 4 -8 14 -8 10 0 16 4 14 8 -3 4 -9 8 -14 8 -5 0
-11 -4 -14 -8z"/>
<path d="M1490 1481 c0 -6 4 -13 10 -16 6 -3 7 1 4 9 -7 18 -14 21 -14 7z"/>
<path d="M1360 1444 c1 -16 29 -60 29 -44 0 8 -6 24 -14 34 -8 11 -15 16 -15
10z"/>
<path d="M1355 1390 c-3 -5 -1 -10 4 -10 6 0 11 5 11 10 0 6 -2 10 -4 10 -3 0
-8 -4 -11 -10z"/>
<path d="M1400 1360 c-12 -7 -10 -9 8 -7 12 0 22 5 22 9 0 11 -12 10 -30 -2z"/>
<path d="M1135 1300 c-3 -5 -1 -10 4 -10 6 0 11 5 11 10 0 6 -2 10 -4 10 -3 0
-8 -4 -11 -10z"/>
<path d="M1279 1158 c-5 -18 -6 -38 -1 -34 7 8 12 36 6 36 -2 0 -4 -1 -5 -2z"/>
<path d="M1369 1043 c-13 -16 -12 -17 4 -4 16 13 21 21 13 21 -2 0 -10 -8 -17
-17z"/>
<path d="M1480 977 c11 -15 10 -19 -5 -31 -10 -7 -15 -19 -12 -27 4 -10 6 -9
6 4 1 10 5 16 10 13 18 -11 22 28 4 43 -16 15 -16 15 -3 -2z"/>
<path d="M1510 978 c0 -4 4 -8 9 -8 6 0 12 4 15 8 3 5 -1 9 -9 9 -8 0 -15 -4
-15 -9z"/>
<path d="M1645 680 c0 -35 1 -36 35 -35 33 1 35 3 35 35 0 32 -2 34 -35 35
-34 1 -35 0 -35 -35z m61 0 c0 -23 -4 -26 -25 -24 -14 1 -28 2 -30 3 -3 1 4 8
15 16 10 8 15 15 9 14 -18 -2 -26 1 -21 9 2 4 15 8 29 8 19 0 23 -5 23 -26z"/>
<path d="M1684 680 c0 -13 4 -16 10 -10 7 7 7 13 0 20 -6 6 -10 3 -10 -10z"/>
<path d="M50 699 c0 -15 18 -19 23 -6 3 8 -1 14 -9 14 -8 0 -14 -4 -14 -8z"/>
<path d="M369 256 c0 0 -2 -17 -4 -37 -3 -35 -2 -36 31 -35 19 1 32 5 30 11
-1 5 -10 9 -19 7 -23 -4 -28 12 -11 34 9 10 12 13 8 5 -5 -10 -3 -12 7 -7 8 4
5 0 -5 -8 -21 -17 -11 -22 13 -7 28 18 20 36 -15 37 -19 1 -34 1 -35 0z"/>
</g>
</svg>
