<?xml version="1.0" standalone="no"?>
<!DOCTYPE svg PUBLIC "-//W3C//DTD SVG 20010904//EN"
 "http://www.w3.org/TR/2001/REC-SVG-20010904/DTD/svg10.dtd">
<svg version="1.0" xmlns="http://www.w3.org/2000/svg"
 width="250.000000pt" height="250.000000pt" viewBox="0 0 250.000000 250.000000"
 preserveAspectRatio="xMidYMid meet">
<metadata>
Created by potrace 1.14, written by Peter Selinger 2001-2017
</metadata>
<g transform="translate(0.000000,250.000000) scale(0.100000,-0.100000)"
fill="#000000" stroke="none">
<path d="M41 1250 l0 -1250 98 0 c70 0 100 4 103 13 2 6 3 155 2 329 -1 227 2
315 10 311 6 -4 23 -20 38 -37 14 -17 55 -61 90 -97 35 -36 109 -115 165 -175
56 -60 146 -155 200 -211 l98 -103 115 0 c63 -1 120 0 125 1 6 1 18 1 28 0 29
-4 19 12 -62 91 -43 43 -77 78 -76 78 1 0 -64 67 -144 149 -80 82 -188 193
-240 246 l-94 97 90 86 c50 48 146 139 213 202 238 225 274 260 265 261 -6 1
-68 2 -140 3 l-130 2 -64 -61 c-35 -33 -116 -112 -181 -175 -238 -231 -285
-276 -296 -283 -8 -4 -10 244 -10 871 1 482 0 883 -2 890 -3 8 -33 12 -103 12
l-98 0 0 -1250z"/>
<path d="M1803 1283 c4 -6 -11 -10 -36 -11 -23 -1 -53 -5 -67 -8 -14 -3 -36
-7 -50 -10 -59 -12 -188 -85 -247 -141 -35 -32 -63 -62 -63 -66 0 -5 -6 -15
-12 -22 -7 -8 -18 -20 -23 -27 -10 -13 -50 -98 -50 -108 0 -3 -3 -10 -7 -16
-31 -49 -46 -295 -24 -382 8 -28 12 -52 9 -52 -3 0 0 -7 7 -15 7 -8 9 -15 5
-15 -4 0 -2 -7 5 -15 7 -8 10 -15 7 -15 -7 0 46 -100 77 -145 32 -47 106 -114
167 -149 54 -33 127 -62 142 -58 4 1 7 -3 7 -10 0 -6 3 -9 6 -5 3 3 17 2 30
-3 17 -7 24 -6 24 3 0 9 2 9 8 0 9 -15 292 -8 292 7 0 3 12 7 27 8 36 3 190
79 197 98 3 8 12 14 20 14 8 0 16 4 18 9 2 5 22 30 46 55 38 40 40 46 26 58
-9 7 -27 23 -40 35 -14 13 -27 23 -31 23 -3 0 -19 12 -36 26 l-30 25 -37 -38
c-47 -48 -77 -73 -90 -73 -6 0 -10 -4 -10 -8 0 -6 -33 -23 -75 -38 -85 -30
-283 -32 -301 -3 -3 5 -10 7 -15 4 -5 -4 -9 -1 -9 4 0 6 -3 10 -7 9 -17 -5
-71 33 -115 80 -66 70 -103 147 -114 232 l-5 35 486 0 c267 0 486 3 486 7 6
34 3 74 -6 80 -7 5 -6 8 1 8 6 0 10 10 8 23 -1 12 -3 22 -4 22 -1 0 -3 24 -6
53 -2 29 -8 62 -14 72 -5 10 -10 28 -10 39 0 11 -19 57 -42 102 -44 88 -149
204 -195 215 -12 4 -23 9 -23 13 0 17 -159 61 -233 65 -29 1 -59 6 -67 11 -8
5 -11 4 -7 -2z m162 -218 c64 -22 145 -80 145 -104 0 -6 5 -11 10 -11 6 0 10
-7 10 -15 0 -8 4 -15 9 -15 5 0 12 -12 16 -27 5 -16 10 -32 12 -38 1 -5 7 -31
11 -57 8 -41 6 -48 -7 -49 -9 0 -180 -1 -379 -2 l-364 -2 6 38 c9 57 11 62 17
67 3 3 13 23 24 45 36 78 147 164 230 179 15 3 29 7 31 9 11 11 185 -2 229
-18z"/>
</g>
</svg>
